<svg width="32" height="33" viewBox="0 0 32 33" fill="none" xmlns="http://www.w3.org/2000/svg">
<path d="M17 19.625V11.5C17 11.2348 16.8946 10.9804 16.7071 10.7929C16.5196 10.6054 16.2652 10.5 16 10.5C15.7348 10.5 15.4804 10.6054 15.2929 10.7929C15.1054 10.9804 15 11.2348 15 11.5V19.625C14.0573 19.8684 13.2358 20.4472 12.6894 21.253C12.143 22.0588 11.9092 23.0362 12.0319 24.002C12.1546 24.9678 12.6253 25.8557 13.3558 26.4993C14.0863 27.1429 15.0264 27.498 16 27.498C16.9736 27.498 17.9137 27.1429 18.6442 26.4993C19.3747 25.8557 19.8454 24.9678 19.9681 24.002C20.0908 23.0362 19.857 22.0588 19.3106 21.253C18.7642 20.4472 17.9427 19.8684 17 19.625ZM16 25.5C15.6044 25.5 15.2178 25.3827 14.8889 25.1629C14.56 24.9432 14.3036 24.6308 14.1522 24.2654C14.0009 23.8999 13.9613 23.4978 14.0384 23.1098C14.1156 22.7219 14.3061 22.3655 14.5858 22.0858C14.8655 21.8061 15.2219 21.6156 15.6098 21.5384C15.9978 21.4613 16.3999 21.5009 16.7654 21.6522C17.1308 21.8036 17.4432 22.06 17.6629 22.3889C17.8827 22.7178 18 23.1044 18 23.5C18 24.0304 17.7893 24.5391 17.4142 24.9142C17.0391 25.2893 16.5304 25.5 16 25.5ZM21 17.25V6.5C21 5.17392 20.4732 3.90215 19.5355 2.96447C18.5979 2.02678 17.3261 1.5 16 1.5C14.6739 1.5 13.4021 2.02678 12.4645 2.96447C11.5268 3.90215 11 5.17392 11 6.5V17.25C9.70615 18.2859 8.76599 19.6981 8.30946 21.2915C7.85293 22.8848 7.90256 24.5806 8.45149 26.1445C9.00043 27.7084 10.0216 29.0633 11.3738 30.0217C12.726 30.9802 14.3425 31.495 16 31.495C17.6575 31.495 19.274 30.9802 20.6262 30.0217C21.9784 29.0633 22.9996 27.7084 23.5485 26.1445C24.0974 24.5806 24.1471 22.8848 23.6905 21.2915C23.234 19.6981 22.2939 18.2859 21 17.25ZM16 29.5C14.7224 29.5001 13.4782 29.0924 12.4484 28.3363C11.4186 27.5801 10.6571 26.5151 10.2746 25.2961C9.8922 24.0771 9.90885 22.7678 10.3221 21.559C10.7354 20.3501 11.5238 19.3047 12.5725 18.575C12.7052 18.4823 12.8134 18.3589 12.8879 18.2152C12.9624 18.0715 13.0008 17.9118 13 17.75V6.5C13 5.70435 13.3161 4.94129 13.8787 4.37868C14.4413 3.81607 15.2044 3.5 16 3.5C16.7957 3.5 17.5587 3.81607 18.1213 4.37868C18.6839 4.94129 19 5.70435 19 6.5V17.75C19 17.911 19.0388 18.0696 19.1133 18.2124C19.1877 18.3551 19.2955 18.4778 19.4275 18.57C20.4784 19.299 21.2688 20.3446 21.6835 21.5545C22.0982 22.7643 22.1155 24.075 21.7328 25.2953C21.3501 26.5157 20.5875 27.5818 19.5562 28.3382C18.5249 29.0946 17.2789 29.5016 16 29.5Z" fill="#343330"/>
</svg>
