<svg width="32" height="33" viewBox="0 0 32 33" fill="none" xmlns="http://www.w3.org/2000/svg">
<path d="M21.75 6.46877C20.206 4.68557 18.4682 3.07984 16.5688 1.68127C16.4006 1.56349 16.2003 1.50031 15.995 1.50031C15.7897 1.50031 15.5894 1.56349 15.4213 1.68127C13.5253 3.08042 11.7909 4.68613 10.25 6.46877C6.81375 10.415 5 14.575 5 18.5C5 21.4174 6.15893 24.2153 8.22183 26.2782C10.2847 28.3411 13.0826 29.5 16 29.5C18.9174 29.5 21.7153 28.3411 23.7782 26.2782C25.8411 24.2153 27 21.4174 27 18.5C27 14.575 25.1862 10.415 21.75 6.46877ZM16 27.5C13.6139 27.4974 11.3262 26.5483 9.63896 24.8611C7.95171 23.1738 7.00265 20.8862 7 18.5C7 11.3463 13.9337 5.37502 16 3.75002C18.0663 5.37502 25 11.3438 25 18.5C24.9974 20.8862 24.0483 23.1738 22.361 24.8611C20.6738 26.5483 18.3861 27.4974 16 27.5ZM22.9862 19.6675C22.7269 21.1159 22.0301 22.4501 20.9896 23.4904C19.949 24.5307 18.6147 25.2273 17.1663 25.4863C17.1113 25.4951 17.0557 25.4997 17 25.5C16.7492 25.5 16.5075 25.4056 16.323 25.2357C16.1384 25.0658 16.0245 24.8328 16.0037 24.5828C15.9829 24.3328 16.0569 24.0842 16.2108 23.8862C16.3648 23.6881 16.5876 23.5552 16.835 23.5138C18.9062 23.165 20.6637 21.4075 21.015 19.3325C21.0594 19.071 21.2059 18.8377 21.4223 18.6842C21.6387 18.5307 21.9072 18.4694 22.1688 18.5138C22.4303 18.5582 22.6635 18.7047 22.8171 18.9211C22.9706 19.1375 23.0319 19.406 22.9875 19.6675H22.9862Z" fill="#343330"/>
</svg>
