<svg width="32" height="33" viewBox="0 0 32 33" fill="none" xmlns="http://www.w3.org/2000/svg">
<path d="M19.8325 25.055L15.8325 31.055C15.7596 31.1643 15.6659 31.2582 15.5567 31.3314C15.4476 31.4045 15.3251 31.4554 15.1962 31.4811C14.936 31.5332 14.6658 31.4797 14.445 31.3325C14.2242 31.1853 14.0709 30.9564 14.0189 30.6962C13.9668 30.436 14.0203 30.1658 14.1675 29.945L18.1675 23.945C18.3147 23.7242 18.5436 23.5709 18.8038 23.5189C19.064 23.4669 19.3342 23.5203 19.555 23.6675C19.7758 23.8147 19.9291 24.0436 19.9811 24.3038C20.0332 24.564 19.9797 24.8342 19.8325 25.055ZM29 12C28.9974 14.5188 27.9956 16.9336 26.2146 18.7146C24.4336 20.4956 22.0187 21.4974 19.5 21.5H16.535L12.8325 27.055C12.7596 27.1643 12.6659 27.2582 12.5567 27.3314C12.4476 27.4045 12.3251 27.4554 12.1962 27.4811C12.0674 27.5069 11.9347 27.507 11.8058 27.4815C11.6769 27.456 11.5543 27.4054 11.445 27.3325C11.3357 27.2596 11.2418 27.1659 11.1687 27.0568C11.0956 26.9476 11.0447 26.8251 11.0189 26.6962C10.9931 26.5674 10.993 26.4347 11.0185 26.3058C11.044 26.1769 11.0946 26.0543 11.1675 25.945L14.1313 21.5H9.5C7.77609 21.5 6.12279 20.8152 4.90381 19.5962C3.68482 18.3772 3 16.7239 3 15C3 13.2761 3.68482 11.6228 4.90381 10.4038C6.12279 9.18483 7.77609 8.50001 9.5 8.50001C9.87367 8.50033 10.2467 8.53211 10.615 8.59501C11.4125 6.52347 12.9096 4.79617 14.8467 3.71238C16.7839 2.62858 19.0392 2.25657 21.2219 2.66081C23.4045 3.06505 25.377 4.22005 26.7975 5.92572C28.2181 7.6314 28.9973 9.78026 29 12ZM27 12C26.992 10.0526 26.2276 8.18447 24.8681 6.79005C23.5087 5.39563 21.6605 4.58404 19.7139 4.52662C17.7673 4.46919 15.8746 5.17043 14.4353 6.48228C12.996 7.79414 12.1228 9.61394 12 11.5575C11.9924 11.6888 11.9591 11.8174 11.9019 11.9358C11.8446 12.0543 11.7646 12.1603 11.6664 12.2478C11.4681 12.4245 11.2077 12.5153 10.9425 12.5C10.6773 12.4848 10.429 12.3648 10.2522 12.1665C10.0755 11.9681 9.98475 11.7077 10 11.4425C10.0175 11.1375 10.0496 10.8363 10.0962 10.5388C9.89851 10.5134 9.69937 10.5004 9.5 10.5C8.30653 10.5 7.16193 10.9741 6.31802 11.818C5.47411 12.6619 5 13.8065 5 15C5 16.1935 5.47411 17.3381 6.31802 18.182C7.16193 19.0259 8.30653 19.5 9.5 19.5H19.5C21.4884 19.4977 23.3947 18.7068 24.8007 17.3008C26.2068 15.8947 26.9977 13.9884 27 12Z" fill="#343330"/>
</svg>
