<svg width="32" height="33" viewBox="0 0 32 33" fill="none" xmlns="http://www.w3.org/2000/svg">
<path d="M4.29124 10.21C4.19789 10.1171 4.12382 10.0066 4.07327 9.88501C4.02272 9.76338 3.9967 9.63296 3.9967 9.50125C3.9967 9.36954 4.02272 9.23912 4.07327 9.11749C4.12382 8.99586 4.19789 8.88542 4.29124 8.7925C4.38749 8.69875 6.63749 6.5 11 6.5C13.3025 6.5 15.03 7.65125 16.555 8.6675C17.9675 9.61 19.3025 10.5 21 10.5C22.3706 10.5205 23.7278 10.2285 24.9687 9.64625C25.45 9.42422 25.8974 9.13509 26.2975 8.7875C26.3907 8.695 26.5013 8.62177 26.6228 8.57199C26.7444 8.52222 26.8745 8.49686 27.0058 8.49739C27.1372 8.49791 27.2671 8.52429 27.3883 8.57504C27.5094 8.62578 27.6194 8.69989 27.7119 8.79313C27.8044 8.88636 27.8776 8.99691 27.9274 9.11845C27.9772 9.23999 28.0025 9.37014 28.002 9.50148C28.0015 9.63281 27.9751 9.76276 27.9243 9.8839C27.8736 10.005 27.7995 10.115 27.7062 10.2075C27.6125 10.3013 25.3625 12.5 21 12.5C18.6975 12.5 16.97 11.3488 15.445 10.3325C14.0325 9.39 12.6975 8.5 11 8.5C9.62941 8.47954 8.27217 8.77151 7.03124 9.35375C6.54998 9.57578 6.10261 9.86491 5.70249 10.2125C5.51475 10.3988 5.26084 10.5031 4.99635 10.5027C4.73186 10.5022 4.47833 10.397 4.29124 10.21ZM26.2975 15.7875C25.8974 16.1351 25.45 16.4242 24.9687 16.6462C23.7278 17.2285 22.3706 17.5205 21 17.5C19.3025 17.5 17.9675 16.61 16.555 15.6675C15.03 14.6512 13.3025 13.5 11 13.5C6.63749 13.5 4.38749 15.6987 4.29374 15.7925C4.10544 15.9793 3.99906 16.2333 3.99801 16.4985C3.99695 16.7638 4.10131 17.0186 4.28812 17.2069C4.47493 17.3952 4.72889 17.5016 4.99414 17.5026C5.25939 17.5037 5.51419 17.3993 5.70249 17.2125C6.10261 16.8649 6.54998 16.5758 7.03124 16.3538C8.27217 15.7715 9.62941 15.4795 11 15.5C12.6975 15.5 14.0325 16.39 15.445 17.3325C16.97 18.3488 18.695 19.5 21 19.5C25.3625 19.5 27.6125 17.3013 27.7062 17.2075C27.7995 17.115 27.8736 17.005 27.9243 16.8839C27.9751 16.7628 28.0015 16.6328 28.002 16.5015C28.0025 16.3701 27.9772 16.24 27.9274 16.1184C27.8776 15.9969 27.8044 15.8864 27.7119 15.7931C27.6194 15.6999 27.5094 15.6258 27.3883 15.575C27.2671 15.5243 27.1372 15.4979 27.0058 15.4974C26.8745 15.4969 26.7444 15.5222 26.6228 15.572C26.5013 15.6218 26.3907 15.695 26.2975 15.7875ZM26.2975 22.7875C25.8974 23.1351 25.45 23.4242 24.9687 23.6462C23.7278 24.2285 22.3706 24.5205 21 24.5C19.3025 24.5 17.9675 23.61 16.555 22.6675C15.03 21.6512 13.3025 20.5 11 20.5C6.63749 20.5 4.38749 22.6987 4.29374 22.7925C4.10544 22.9793 3.99906 23.2333 3.99801 23.4985C3.99695 23.7638 4.10131 24.0186 4.28812 24.2069C4.47493 24.3952 4.72889 24.5016 4.99414 24.5026C5.25939 24.5037 5.51419 24.3993 5.70249 24.2125C6.10261 23.8649 6.54998 23.5758 7.03124 23.3538C8.27217 22.7715 9.62941 22.4795 11 22.5C12.6975 22.5 14.0325 23.39 15.445 24.3325C16.97 25.3488 18.695 26.5 21 26.5C25.3625 26.5 27.6125 24.3013 27.7062 24.2075C27.8945 24.0207 28.0009 23.7667 28.002 23.5015C28.003 23.2362 27.8987 22.9814 27.7119 22.7931C27.5251 22.6048 27.2711 22.4984 27.0058 22.4974C26.7406 22.4963 26.4858 22.6007 26.2975 22.7875Z" fill="#343330"/>
</svg>
