<svg width="265" height="38" viewBox="0 0 265 38" fill="none" xmlns="http://www.w3.org/2000/svg">
<path d="M11 27.5C11 27.7967 10.912 28.0867 10.7472 28.3334C10.5824 28.58 10.3481 28.7723 10.074 28.8858C9.79994 28.9993 9.49834 29.0291 9.20736 28.9712C8.91639 28.9133 8.64912 28.7704 8.43934 28.5607C8.22956 28.3509 8.0867 28.0836 8.02882 27.7926C7.97094 27.5017 8.00065 27.2001 8.11418 26.926C8.22771 26.6519 8.41997 26.4176 8.66665 26.2528C8.91332 26.088 9.20333 26 9.5 26C9.89782 26 10.2794 26.158 10.5607 26.4393C10.842 26.7206 11 27.1022 11 27.5ZM14.5 28C14.2033 28 13.9133 28.088 13.6666 28.2528C13.42 28.4176 13.2277 28.6519 13.1142 28.926C13.0006 29.2001 12.9709 29.5017 13.0288 29.7926C13.0867 30.0836 13.2296 30.3509 13.4393 30.5607C13.6491 30.7704 13.9164 30.9133 14.2074 30.9712C14.4983 31.0291 14.7999 30.9993 15.074 30.8858C15.3481 30.7723 15.5824 30.58 15.7472 30.3334C15.912 30.0867 16 29.7967 16 29.5C16 29.1022 15.842 28.7206 15.5607 28.4393C15.2794 28.158 14.8978 28 14.5 28ZM20.5 26C20.2033 26 19.9133 26.088 19.6666 26.2528C19.42 26.4176 19.2277 26.6519 19.1142 26.926C19.0007 27.2001 18.9709 27.5017 19.0288 27.7926C19.0867 28.0836 19.2296 28.3509 19.4393 28.5607C19.6491 28.7704 19.9164 28.9133 20.2074 28.9712C20.4983 29.0291 20.7999 28.9993 21.074 28.8858C21.3481 28.7723 21.5824 28.58 21.7472 28.3334C21.912 28.0867 22 27.7967 22 27.5C22 27.1022 21.842 26.7206 21.5607 26.4393C21.2794 26.158 20.8978 26 20.5 26ZM8.5 31C8.20333 31 7.91332 31.088 7.66664 31.2528C7.41997 31.4176 7.22771 31.6519 7.11418 31.926C7.00065 32.2001 6.97094 32.5017 7.02882 32.7926C7.0867 33.0836 7.22956 33.3509 7.43934 33.5607C7.64912 33.7704 7.91639 33.9133 8.20736 33.9712C8.49834 34.0291 8.79994 33.9993 9.07403 33.8858C9.34811 33.7723 9.58238 33.58 9.7472 33.3334C9.91203 33.0867 10 32.7967 10 32.5C10 32.1022 9.84196 31.7206 9.56066 31.4393C9.27936 31.158 8.89782 31 8.5 31ZM19.5 31C19.2033 31 18.9133 31.088 18.6666 31.2528C18.42 31.4176 18.2277 31.6519 18.1142 31.926C18.0007 32.2001 17.9709 32.5017 18.0288 32.7926C18.0867 33.0836 18.2296 33.3509 18.4393 33.5607C18.6491 33.7704 18.9164 33.9133 19.2074 33.9712C19.4983 34.0291 19.7999 33.9993 20.074 33.8858C20.3481 33.7723 20.5824 33.58 20.7472 33.3334C20.912 33.0867 21 32.7967 21 32.5C21 32.1022 20.842 31.7206 20.5607 31.4393C20.2794 31.158 19.8978 31 19.5 31ZM29 14.5C28.9974 17.0187 27.9956 19.4336 26.2146 21.2146C24.4336 22.9956 22.0187 23.9974 19.5 24H9.5C7.77609 24 6.12279 23.3152 4.90381 22.0962C3.68482 20.8772 3 19.2239 3 17.5C3 15.7761 3.68482 14.1228 4.90381 12.9038C6.12279 11.6848 7.77609 11 9.5 11C9.87367 11.0003 10.2467 11.0321 10.615 11.095C11.4125 9.02346 12.9096 7.29616 14.8467 6.21236C16.7839 5.12856 19.0392 4.75656 21.2219 5.16079C23.4045 5.56503 25.377 6.72004 26.7975 8.42571C28.2181 10.1314 28.9973 12.2802 29 14.5ZM27 14.5C26.992 12.5526 26.2276 10.6845 24.8681 9.29004C23.5087 7.89562 21.6605 7.08403 19.7139 7.0266C17.7673 6.96918 15.8746 7.67041 14.4353 8.98227C12.996 10.2941 12.1228 12.1139 12 14.0575C11.9924 14.1888 11.9591 14.3174 11.9019 14.4358C11.8446 14.5542 11.7646 14.6602 11.6664 14.7478C11.4681 14.9245 11.2077 15.0152 10.9425 15C10.6773 14.9847 10.429 14.8648 10.2522 14.6664C10.0755 14.4681 9.98475 14.2077 10 13.9425C10.0175 13.6375 10.0496 13.3362 10.0962 13.0387C9.89851 13.0134 9.69937 13.0004 9.5 13C8.30653 13 7.16193 13.4741 6.31802 14.318C5.47411 15.1619 5 16.3065 5 17.5C5 18.6935 5.47411 19.8381 6.31802 20.682C7.16193 21.5259 8.30653 22 9.5 22H19.5C21.4884 21.9977 23.3947 21.2068 24.8007 19.8007C26.2068 18.3947 26.9977 16.4884 27 14.5Z" fill="#0F172A"/>
<path d="M45.288 30.32C43.816 30.32 42.3653 30.0853 40.936 29.616C39.528 29.1253 38.3333 28.4213 37.352 27.504L39.432 23.76C40.4773 24.4427 41.48 24.976 42.44 25.36C43.4213 25.744 44.3067 25.936 45.096 25.936C45.544 25.936 45.8747 25.8827 46.088 25.776C46.3013 25.648 46.408 25.4453 46.408 25.168C46.408 24.976 46.3333 24.816 46.184 24.688C46.0347 24.56 45.7893 24.432 45.448 24.304C45.128 24.176 44.712 24.0373 44.2 23.888C42.8773 23.4187 41.768 22.9813 40.872 22.576C39.9973 22.1707 39.336 21.68 38.888 21.104C38.4613 20.5067 38.248 19.7173 38.248 18.736C38.248 17.584 38.536 16.5707 39.112 15.696C39.688 14.8 40.5093 14.096 41.576 13.584C42.664 13.072 43.9653 12.816 45.48 12.816C46.6107 12.816 47.7413 12.9973 48.872 13.36C50.024 13.7013 51.1333 14.3307 52.2 15.248L49.896 18.96C48.8293 18.2987 47.9227 17.8293 47.176 17.552C46.4507 17.2747 45.8 17.136 45.224 17.136C44.9467 17.136 44.7013 17.168 44.488 17.232C44.296 17.296 44.1467 17.392 44.04 17.52C43.9333 17.648 43.88 17.8187 43.88 18.032C43.88 18.2453 43.9547 18.4267 44.104 18.576C44.2533 18.704 44.488 18.832 44.808 18.96C45.128 19.0667 45.5333 19.1947 46.024 19.344C47.4747 19.7707 48.6587 20.208 49.576 20.656C50.4933 21.0827 51.1653 21.6053 51.592 22.224C52.04 22.8427 52.264 23.6533 52.264 24.656C52.264 26.4267 51.6347 27.8133 50.376 28.816C49.1387 29.8187 47.4427 30.32 45.288 30.32ZM54.5673 30V13.168H60.6473V30H54.5673ZM54.5673 11.76V6.64H60.6473V11.76H54.5673ZM90.8595 30H84.7795V20.528C84.7795 19.696 84.6088 19.0987 84.2675 18.736C83.9475 18.352 83.5528 18.16 83.0835 18.16C82.6142 18.16 82.1022 18.384 81.5475 18.832C80.9928 19.28 80.5875 19.856 80.3315 20.56V30H74.2515V20.528C74.2515 19.696 74.0808 19.0987 73.7395 18.736C73.4195 18.352 73.0248 18.16 72.5555 18.16C72.0862 18.16 71.5742 18.384 71.0195 18.832C70.4648 19.28 70.0595 19.856 69.8035 20.56V30H63.7235V13.168H69.1955V15.664C69.7928 14.7467 70.6142 14.0533 71.6595 13.584C72.7048 13.0933 73.9422 12.848 75.3715 12.848C76.7582 12.848 77.8035 13.1467 78.5075 13.744C79.2115 14.3413 79.6808 15.0133 79.9155 15.76C80.5128 14.8427 81.3342 14.128 82.3795 13.616C83.4248 13.104 84.5982 12.848 85.8995 12.848C87.0088 12.848 87.8942 13.0507 88.5555 13.456C89.2168 13.8613 89.7075 14.384 90.0275 15.024C90.3688 15.664 90.5928 16.336 90.6995 17.04C90.8062 17.7227 90.8595 18.352 90.8595 18.928V30ZM105.145 30.32C103.929 30.32 102.873 30.0853 101.977 29.616C101.081 29.1253 100.388 28.4213 99.8973 27.504V36.816H93.8173V13.168H99.0973V15.696C99.6946 14.7787 100.431 14.0747 101.305 13.584C102.201 13.0933 103.279 12.848 104.537 12.848C105.668 12.848 106.703 13.0613 107.641 13.488C108.58 13.9147 109.401 14.5227 110.105 15.312C110.809 16.1013 111.353 17.0187 111.737 18.064C112.121 19.1093 112.313 20.2613 112.313 21.52C112.313 23.2053 112.004 24.7093 111.385 26.032C110.767 27.3547 109.913 28.4 108.825 29.168C107.759 29.936 106.532 30.32 105.145 30.32ZM103.033 25.2C103.481 25.2 103.887 25.104 104.249 24.912C104.633 24.72 104.964 24.4533 105.241 24.112C105.519 23.7707 105.732 23.376 105.881 22.928C106.031 22.48 106.105 22 106.105 21.488C106.105 20.9547 106.02 20.4747 105.849 20.048C105.7 19.6213 105.476 19.2587 105.177 18.96C104.879 18.64 104.527 18.3947 104.121 18.224C103.716 18.0533 103.268 17.968 102.777 17.968C102.5 17.968 102.223 18.0107 101.945 18.096C101.689 18.16 101.444 18.2667 101.209 18.416C100.975 18.544 100.74 18.7147 100.505 18.928C100.292 19.1413 100.089 19.3973 99.8973 19.696V22.608C100.089 23.0987 100.345 23.5467 100.665 23.952C101.007 24.336 101.38 24.6453 101.785 24.88C102.191 25.0933 102.607 25.2 103.033 25.2ZM114.408 6.64H120.488V23.312C120.488 23.9307 120.616 24.4107 120.872 24.752C121.149 25.072 121.544 25.232 122.056 25.232C122.312 25.232 122.589 25.1893 122.888 25.104C123.187 25.0187 123.464 24.9013 123.72 24.752L124.488 29.232C123.763 29.5733 122.941 29.84 122.024 30.032C121.128 30.224 120.275 30.32 119.464 30.32C117.843 30.32 116.595 29.904 115.72 29.072C114.845 28.2187 114.408 27.0133 114.408 25.456V6.64ZM134.199 30.32C132.727 30.32 131.415 30.096 130.263 29.648C129.111 29.1787 128.14 28.5493 127.351 27.76C126.583 26.9707 125.996 26.064 125.591 25.04C125.186 24.016 124.983 22.9387 124.983 21.808C124.983 20.1867 125.335 18.704 126.039 17.36C126.743 15.9947 127.778 14.9067 129.143 14.096C130.508 13.264 132.194 12.848 134.199 12.848C136.204 12.848 137.89 13.2533 139.255 14.064C140.62 14.8747 141.655 15.9413 142.359 17.264C143.063 18.5867 143.415 20.0267 143.415 21.584C143.415 21.904 143.394 22.2347 143.351 22.576C143.33 22.896 143.298 23.184 143.255 23.44H131.447C131.49 24.0373 131.65 24.528 131.927 24.912C132.226 25.2747 132.588 25.5413 133.015 25.712C133.463 25.8827 133.922 25.968 134.391 25.968C135.052 25.968 135.671 25.8187 136.247 25.52C136.844 25.2213 137.239 24.8053 137.431 24.272L142.583 25.744C142.135 26.64 141.506 27.4293 140.695 28.112C139.906 28.7947 138.967 29.3387 137.879 29.744C136.791 30.128 135.564 30.32 134.199 30.32ZM131.319 19.792H136.887C136.823 19.2373 136.663 18.768 136.407 18.384C136.172 18 135.852 17.7013 135.447 17.488C135.063 17.2747 134.615 17.168 134.103 17.168C133.591 17.168 133.132 17.2747 132.727 17.488C132.343 17.7013 132.023 18 131.767 18.384C131.532 18.768 131.383 19.2373 131.319 19.792ZM167.267 13.328H169.411L162.243 30H160.355L156.867 21.712L153.411 30H151.523L144.355 13.328H146.467L152.547 27.76L155.619 20.24L152.803 13.36H154.755L156.867 18.768L159.011 13.36H160.931L158.147 20.24L161.219 27.76L167.267 13.328ZM178.944 30.32C177.749 30.32 176.64 30.096 175.616 29.648C174.592 29.1787 173.706 28.5493 172.96 27.76C172.213 26.9493 171.626 26.0213 171.2 24.976C170.794 23.9307 170.592 22.8107 170.592 21.616C170.592 20.0587 170.944 18.6293 171.648 17.328C172.373 16.0267 173.365 14.992 174.624 14.224C175.882 13.4347 177.312 13.04 178.912 13.04C180.554 13.04 181.984 13.4347 183.2 14.224C184.437 15.0133 185.408 16.0587 186.112 17.36C186.816 18.64 187.168 20.048 187.168 21.584C187.168 21.7547 187.168 21.9253 187.168 22.096C187.168 22.2453 187.157 22.3627 187.136 22.448H172.864C172.97 23.6427 173.301 24.7093 173.856 25.648C174.432 26.5653 175.168 27.3013 176.064 27.856C176.981 28.3893 177.973 28.656 179.04 28.656C180.128 28.656 181.152 28.3787 182.112 27.824C183.093 27.2693 183.776 26.544 184.16 25.648L186.048 26.16C185.706 26.9493 185.184 27.664 184.48 28.304C183.776 28.944 182.944 29.4453 181.984 29.808C181.045 30.1493 180.032 30.32 178.944 30.32ZM172.8 20.88H185.12C185.034 19.664 184.704 18.5973 184.128 17.68C183.573 16.7627 182.837 16.048 181.92 15.536C181.024 15.0027 180.032 14.736 178.944 14.736C177.856 14.736 176.864 15.0027 175.968 15.536C175.072 16.048 174.336 16.7733 173.76 17.712C173.205 18.6293 172.885 19.6853 172.8 20.88ZM189.181 25.2C189.181 24.1547 189.48 23.2587 190.077 22.512C190.674 21.744 191.496 21.1573 192.541 20.752C193.608 20.3253 194.834 20.112 196.221 20.112C197.032 20.112 197.874 20.176 198.749 20.304C199.624 20.432 200.402 20.624 201.085 20.88V19.472C201.085 18.064 200.669 16.944 199.837 16.112C199.005 15.28 197.853 14.864 196.381 14.864C195.485 14.864 194.6 15.0347 193.725 15.376C192.872 15.696 191.976 16.176 191.037 16.816L190.205 15.28C191.293 14.5333 192.36 13.9787 193.405 13.616C194.45 13.232 195.517 13.04 196.605 13.04C198.653 13.04 200.274 13.6267 201.469 14.8C202.664 15.9733 203.261 17.5947 203.261 19.664V27.376C203.261 27.6747 203.325 27.8987 203.453 28.048C203.581 28.176 203.784 28.2507 204.061 28.272V30C203.826 30.0213 203.624 30.0427 203.453 30.064C203.282 30.0853 203.154 30.0853 203.069 30.064C202.536 30.0427 202.13 29.872 201.853 29.552C201.576 29.232 201.426 28.8907 201.405 28.528L201.373 27.312C200.626 28.272 199.656 29.0187 198.461 29.552C197.266 30.064 196.05 30.32 194.813 30.32C193.746 30.32 192.776 30.096 191.901 29.648C191.048 29.1787 190.376 28.56 189.885 27.792C189.416 27.0027 189.181 26.1387 189.181 25.2ZM200.349 26.48C200.584 26.1813 200.765 25.8933 200.893 25.616C201.021 25.3387 201.085 25.0933 201.085 24.88V22.448C200.36 22.1707 199.602 21.9573 198.813 21.808C198.045 21.6587 197.266 21.584 196.477 21.584C194.92 21.584 193.661 21.8933 192.701 22.512C191.741 23.1307 191.261 23.9733 191.261 25.04C191.261 25.6587 191.421 26.2453 191.741 26.8C192.061 27.3333 192.53 27.7813 193.149 28.144C193.768 28.4853 194.493 28.656 195.325 28.656C196.37 28.656 197.341 28.4533 198.237 28.048C199.154 27.6427 199.858 27.12 200.349 26.48ZM215.838 29.2C215.667 29.264 215.4 29.3813 215.038 29.552C214.675 29.7227 214.238 29.872 213.726 30C213.214 30.128 212.659 30.192 212.062 30.192C211.443 30.192 210.856 30.0747 210.302 29.84C209.768 29.6053 209.342 29.2533 209.022 28.784C208.702 28.2933 208.542 27.696 208.542 26.992V15.056H206.238V13.328H208.542V7.696H210.718V13.328H214.558V15.056H210.718V26.384C210.76 26.9813 210.974 27.4293 211.358 27.728C211.763 28.0267 212.222 28.176 212.734 28.176C213.331 28.176 213.875 28.08 214.366 27.888C214.856 27.6747 215.155 27.5253 215.262 27.44L215.838 29.2ZM232.572 30H230.396V20.688C230.396 18.8107 230.066 17.4027 229.404 16.464C228.743 15.504 227.794 15.024 226.556 15.024C225.746 15.024 224.935 15.2373 224.124 15.664C223.335 16.0693 222.631 16.6347 222.012 17.36C221.415 18.064 220.988 18.8747 220.732 19.792V30H218.556V6.64H220.732V17.104C221.394 15.8667 222.311 14.8853 223.484 14.16C224.679 13.4133 225.948 13.04 227.292 13.04C228.252 13.04 229.063 13.2107 229.724 13.552C230.407 13.8933 230.951 14.3947 231.356 15.056C231.783 15.696 232.092 16.4533 232.284 17.328C232.476 18.1813 232.572 19.152 232.572 20.24V30ZM244.413 30.32C243.218 30.32 242.109 30.096 241.085 29.648C240.061 29.1787 239.175 28.5493 238.429 27.76C237.682 26.9493 237.095 26.0213 236.669 24.976C236.263 23.9307 236.061 22.8107 236.061 21.616C236.061 20.0587 236.413 18.6293 237.117 17.328C237.842 16.0267 238.834 14.992 240.093 14.224C241.351 13.4347 242.781 13.04 244.381 13.04C246.023 13.04 247.453 13.4347 248.669 14.224C249.906 15.0133 250.877 16.0587 251.581 17.36C252.285 18.64 252.637 20.048 252.637 21.584C252.637 21.7547 252.637 21.9253 252.637 22.096C252.637 22.2453 252.626 22.3627 252.605 22.448H238.333C238.439 23.6427 238.77 24.7093 239.325 25.648C239.901 26.5653 240.637 27.3013 241.533 27.856C242.45 28.3893 243.442 28.656 244.509 28.656C245.597 28.656 246.621 28.3787 247.581 27.824C248.562 27.2693 249.245 26.544 249.629 25.648L251.517 26.16C251.175 26.9493 250.653 27.664 249.949 28.304C249.245 28.944 248.413 29.4453 247.453 29.808C246.514 30.1493 245.501 30.32 244.413 30.32ZM238.269 20.88H250.589C250.503 19.664 250.173 18.5973 249.597 17.68C249.042 16.7627 248.306 16.048 247.389 15.536C246.493 15.0027 245.501 14.736 244.413 14.736C243.325 14.736 242.333 15.0027 241.437 15.536C240.541 16.048 239.805 16.7733 239.229 17.712C238.674 18.6293 238.354 19.6853 238.269 20.88ZM264.314 15.248C262.863 15.2907 261.583 15.696 260.474 16.464C259.386 17.232 258.618 18.288 258.17 19.632V30H255.994V13.328H258.042V17.328C258.618 16.1547 259.375 15.2053 260.314 14.48C261.274 13.7547 262.287 13.3493 263.354 13.264C263.567 13.2427 263.748 13.232 263.898 13.232C264.068 13.232 264.207 13.2427 264.314 13.264V15.248Z" fill="#0F172A"/>
</svg>
