<svg width="32" height="33" viewBox="0 0 32 33" fill="none" xmlns="http://www.w3.org/2000/svg">
<path d="M23 23.5C23 24.5609 22.5786 25.5783 21.8284 26.3284C21.0783 27.0786 20.0609 27.5 19 27.5C17.2875 27.5 15.6313 26.3837 15.0625 24.8475C14.976 24.6002 14.99 24.3288 15.1015 24.0916C15.213 23.8545 15.4131 23.6706 15.6588 23.5796C15.9045 23.4885 16.1762 23.4975 16.4153 23.6046C16.6544 23.7118 16.8419 23.9085 16.9375 24.1525C17.2175 24.9088 18.125 25.5 19 25.5C19.5304 25.5 20.0391 25.2893 20.4142 24.9142C20.7893 24.5391 21 24.0304 21 23.5C21 22.9696 20.7893 22.4609 20.4142 22.0858C20.0391 21.7107 19.5304 21.5 19 21.5H5C4.73478 21.5 4.48043 21.3946 4.29289 21.2071C4.10536 21.0196 4 20.7652 4 20.5C4 20.2348 4.10536 19.9804 4.29289 19.7929C4.48043 19.6054 4.73478 19.5 5 19.5H19C20.0609 19.5 21.0783 19.9214 21.8284 20.6716C22.5786 21.4217 23 22.4391 23 23.5ZM15 13.5C16.0609 13.5 17.0783 13.0786 17.8284 12.3284C18.5786 11.5783 19 10.5609 19 9.5C19 8.43913 18.5786 7.42172 17.8284 6.67157C17.0783 5.92143 16.0609 5.5 15 5.5C13.2875 5.5 11.6313 6.61625 11.0625 8.1525C10.976 8.39983 10.99 8.67125 11.1015 8.90837C11.213 9.14549 11.4131 9.32936 11.6588 9.42043C11.9045 9.5115 12.1762 9.5025 12.4153 9.39535C12.6544 9.28821 12.8419 9.09148 12.9375 8.8475C13.2175 8.09125 14.125 7.5 15 7.5C15.5304 7.5 16.0391 7.71071 16.4142 8.08579C16.7893 8.46086 17 8.96957 17 9.5C17 10.0304 16.7893 10.5391 16.4142 10.9142C16.0391 11.2893 15.5304 11.5 15 11.5H3C2.73478 11.5 2.48043 11.6054 2.29289 11.7929C2.10536 11.9804 2 12.2348 2 12.5C2 12.7652 2.10536 13.0196 2.29289 13.2071C2.48043 13.3946 2.73478 13.5 3 13.5H15ZM26 9.5C24.2875 9.5 22.6313 10.6163 22.0625 12.1525C21.976 12.3998 21.99 12.6712 22.1015 12.9084C22.213 13.1455 22.4131 13.3294 22.6588 13.4204C22.9045 13.5115 23.1762 13.5025 23.4153 13.3954C23.6544 13.2882 23.8419 13.0915 23.9375 12.8475C24.2175 12.0912 25.125 11.5 26 11.5C26.5304 11.5 27.0391 11.7107 27.4142 12.0858C27.7893 12.4609 28 12.9696 28 13.5C28 14.0304 27.7893 14.5391 27.4142 14.9142C27.0391 15.2893 26.5304 15.5 26 15.5H4C3.73478 15.5 3.48043 15.6054 3.29289 15.7929C3.10536 15.9804 3 16.2348 3 16.5C3 16.7652 3.10536 17.0196 3.29289 17.2071C3.48043 17.3946 3.73478 17.5 4 17.5H26C27.0609 17.5 28.0783 17.0786 28.8284 16.3284C29.5786 15.5783 30 14.5609 30 13.5C30 12.4391 29.5786 11.4217 28.8284 10.6716C28.0783 9.92143 27.0609 9.5 26 9.5Z" fill="#343330"/>
</svg>
